<?xml version="1.0" encoding="UTF-8"?>
<!DOCTYPE svg PUBLIC "-//W3C//DTD SVG 1.1//EN" "http://www.w3.org/Graphics/SVG/1.1/DTD/svg11.dtd">
<!-- Creator: CorelDRAW X7 -->
<svg xmlns="http://www.w3.org/2000/svg" xml:space="preserve" width="85.1932mm" height="67.335mm" version="1.1" style="shape-rendering:geometricPrecision; text-rendering:geometricPrecision; image-rendering:optimizeQuality; fill-rule:evenodd; clip-rule:evenodd"
viewBox="0 0 9282 7336"
 xmlns:xlink="http://www.w3.org/1999/xlink">
 <defs>
  <style type="text/css">
   <![CDATA[
    .fil0 {fill:url(#id0)}
   ]]>
  </style>
  <linearGradient id="id0" gradientUnits="userSpaceOnUse" x1="-142.21" y1="4014.03" x2="9423.84" y2="3321.99">
   <stop offset="0" style="stop-opacity:1; stop-color:#1655A3"/>
   <stop offset="1" style="stop-opacity:1; stop-color:#55C6CF"/>
  </linearGradient>
 </defs>
 <g id="Layer_x0020_1">
  <metadata id="CorelCorpID_0Corel-Layer"/>
  <path class="fil0" d="M6750 1782l-698 1649 -254 601 -150 354c-34,82 4,178 86,213l0 0c82,34 178,-4 213,-86l149 -355 5 2 194 -459c35,-82 130,-121 212,-86l0 0c82,34 121,130 86,212l-194 459 4 2 -362 856c-35,82 4,178 86,212l0 0c82,35 178,-4 212,-86l362 -856 0 0 124 -293c35,-82 130,-121 212,-86l1 0c82,35 120,130 86,212l-124 293 8 4 -324 766c-35,82 4,178 86,212l0 0c82,35 178,-4 212,-86l324 -766 80 -189 1896 -4481 -2258 1133 -1190 598 916 51zm-4588 408c310,-755 2277,-891 2601,406 109,436 652,2989 652,2989 0,0 132,590 499,765 366,175 696,-147 696,-147 -458,731 -2364,908 -2694,-657 -155,-734 -370,-2225 -663,-3012 -164,-439 -575,-597 -1091,-344zm370 3364l183 -432 254 -601 150 -354c34,-82 -4,-178 -86,-213l0 0c-82,-34 -178,4 -213,86l-149 355 -5 -2 -194 459c-35,82 -130,121 -212,86l0 0c-82,-34 -121,-130 -86,-212l194 -459 -4 -2 362 -856c35,-82 -4,-178 -86,-213l0 0c-82,-34 -178,4 -212,86l-362 857 0 0 -124 293c-35,82 -131,121 -213,86l0 0c-82,-35 -120,-130 -86,-212l124 -293 -8 -4 324 -766c34,-82 -4,-178 -86,-212l0 0c-82,-35 -178,4 -212,86l-324 766 -80 189 -1381 3264 2257 -1133 1190 -598 -915 -51zm410 -1796l0 0c-82,-34 -120,-130 -86,-212l80 -187c34,-82 130,-121 212,-86l0 0c82,34 121,130 86,212l-79 187c-35,82 -131,121 -213,86zm-596 -668l0 0c-82,-34 -121,-130 -86,-212l192 -454c34,-82 130,-120 212,-86l0 0c82,35 120,130 86,212l-192 454c-35,82 -130,121 -212,86zm3478 1705l0 0c82,34 121,130 86,212l-79 187c-34,82 -130,121 -212,86l0 0c-82,-34 -121,-130 -86,-212l79 -187c35,-82 130,-121 212,-86zm597 668l0 0c82,34 121,130 86,212l-192 454c-34,82 -130,120 -212,86l0 0c-82,-35 -120,-131 -86,-213l192 -453c35,-82 130,-121 212,-86z"/>
 </g>
</svg>
