<svg width="60" height="60" viewBox="0 0 60 60" fill="none" xmlns="http://www.w3.org/2000/svg">
<rect x="22.5" y="16.25" width="34" height="12" rx="1" fill="white" stroke="#3C4043" stroke-width="2"/>
<path d="M27.1853 8.07112C27.2717 7.59562 27.6859 7.25 28.1692 7.25H50.8308C51.3141 7.25 51.7283 7.59562 51.8147 8.07112L53.3018 16.25H25.6982L27.1853 8.07112Z" fill="white" stroke="#3C4043" stroke-width="2"/>
<circle cx="29.5" cy="22.25" r="2" fill="#3C4043"/>
<circle cx="49.5" cy="22.25" r="2" fill="#3C4043"/>
<rect x="34.5" y="20.25" width="10" height="4" fill="#3C4043"/>
<path d="M23.5 29.25H28.5V33.25C28.5 34.3546 27.6046 35.25 26.5 35.25H25.5C24.3954 35.25 23.5 34.3546 23.5 33.25V29.25Z" fill="#3C4043"/>
<path d="M50.5 29.25H55.5V33.25C55.5 34.3546 54.6046 35.25 53.5 35.25H52.5C51.3954 35.25 50.5 34.3546 50.5 33.25V29.25Z" fill="#3C4043"/>
<rect x="3.5" y="34.75" width="34" height="12" rx="1" fill="white" stroke="#3C4043" stroke-width="2"/>
<path d="M8.18528 26.5711C8.27174 26.0956 8.68587 25.75 9.16915 25.75H31.8308C32.3141 25.75 32.7283 26.0956 32.8147 26.5711L34.3018 34.75H6.69821L8.18528 26.5711Z" fill="white" stroke="#3C4043" stroke-width="2"/>
<circle cx="10.5" cy="40.75" r="2" fill="#3C4043"/>
<circle cx="30.5" cy="40.75" r="2" fill="#3C4043"/>
<rect x="15.5" y="38.75" width="10" height="4" fill="#3C4043"/>
<path d="M4.5 47.75H9.5V51.75C9.5 52.8546 8.60457 53.75 7.5 53.75H6.5C5.39543 53.75 4.5 52.8546 4.5 51.75V47.75Z" fill="#3C4043"/>
<path d="M31.5 47.75H36.5V51.75C36.5 52.8546 35.6046 53.75 34.5 53.75H33.5C32.3954 53.75 31.5 52.8546 31.5 51.75V47.75Z" fill="#3C4043"/>
</svg>
