<svg width="60" height="60" viewBox="0 0 60 60" fill="none" xmlns="http://www.w3.org/2000/svg">
<path d="M3 31.1503C3 29.1111 3.3375 27.0719 3.675 25.0327L19.875 41.3464V44.7451C19.875 48.4837 22.9125 51.5425 26.625 51.5425V58C13.4625 56.3007 3 45.085 3 31.1503ZM49.9125 49.5033C48.9 46.7843 46.5375 44.7451 43.5 44.7451H40.125V34.549C40.125 32.5098 38.775 31.1503 36.75 31.1503H16.5V24.3529H23.25C25.275 24.3529 26.625 22.9935 26.625 20.9543V14.1569H33.375C37.0875 14.1569 40.125 11.098 40.125 7.35948V6C49.9125 10.0784 57 19.9346 57 31.1503C57 38.2876 54.3 44.7451 49.9125 49.5033Z" fill="#4285F4"/>
<path d="M56.392 31.3044C56.392 45.8799 44.5762 57.6957 30.0007 57.6957C15.4252 57.6957 3.60938 45.8799 3.60938 31.3044C3.60938 16.7289 15.4252 4.91309 30.0007 4.91309C44.5762 4.91309 56.392 16.7289 56.392 31.3044Z" stroke="#3C4043" stroke-width="2"/>
</svg>
