<svg width="60" height="60" viewBox="0 0 60 60" fill="none" xmlns="http://www.w3.org/2000/svg">
<g clip-path="url(#clip0_10224_55358)">
<path d="M26.8889 2.34347L26.9125 2.31993L26.9344 2.29487C28.4205 0.596505 31.2917 0.524049 33.1111 2.34347L57.6565 26.8889C59.4478 28.6802 59.4478 31.3198 57.6565 33.1111L33.1111 57.6565C32.2017 58.5659 31.0901 59 30 59C28.9099 59 27.7983 58.5659 26.8889 57.6565L2.34347 33.1111C0.552176 31.3198 0.552176 28.6802 2.34347 26.8889L26.8889 2.34347Z" stroke="#3C4043" stroke-width="2"/>
<path d="M27.5 20V38M27.5 45.5V38M27.5 38C29 34.6667 32 28 44 30" stroke="#34A853" stroke-width="4"/>
<path d="M40 36.5V23L47 29.5L40 36.5Z" fill="#34A853"/>
<path d="M34 20L21 20L27.5 13L34 20Z" fill="#34A853"/>
</g>
<defs>
<clipPath id="clip0_10224_55358">
<rect width="60" height="60" fill="white"/>
</clipPath>
</defs>
</svg>
